<svg id="Capa_1" enable-background="new 0 0 512 512" height="512" viewBox="0 0 512 512" width="512" xmlns="http://www.w3.org/2000/svg"><g><path d="m416 0v64l-208 15-208-15v-64h160l48 15 48-15z" fill="#fe0"/><path d="m416 0v64l-208 15v-64l48-15z" fill="#fc0"/><path d="m0 64h416v352h-416z" fill="#fc0"/><path d="m208 64h208v352h-208z" fill="#ff9e00"/><path d="m256 0v149.25l-48-21.25-48 21.25v-149.25z" fill="#ff3d58"/><path d="m256 0v149.25l-48-21.25v-128z" fill="#d20173"/><path d="m60.25 271.125h90.25v30h-90.25z" fill="#fe0"/><path d="m60.25 331.375h60.125v30h-60.125z" fill="#fe0"/><circle cx="381.5" cy="381.5" fill="#97cbff" r="130.5"/><path d="m512 381.5c0 72.07-58.43 130.5-130.5 130.5v-261c72.07 0 130.5 58.43 130.5 130.5z" fill="#7f7cff"/><path d="m451.6 366.5v30h-55.1v55.1h-30v-55.1h-55.1v-30h55.1v-55.1h30v55.1z" fill="#f1f1f1"/><path d="m451.6 366.5v30h-55.1v55.1h-15v-140.2h15v55.1z" fill="#d6d6ea"/></g></svg>