<svg height="512pt" viewBox="0 -4 512.00086 512" width="512pt" xmlns="http://www.w3.org/2000/svg"><g fill="#95a5a5"><path d="m256.019531 34.132812c-4.714843 0-8.535156-3.820312-8.535156-8.53125v-17.066406c0-4.714844 3.820313-8.535156 8.535156-8.535156 4.710938 0 8.53125 3.820312 8.53125 8.535156v17.066406c0 4.710938-3.820312 8.53125-8.53125 8.53125zm0 0"/><path d="m80.746094 366.933594-40.800782 130.558594c-1.117187 3.558593-4.414062 5.976562-8.140624 5.976562h-.511719c-2.539063 0-4.945313-1.132812-6.566407-3.085938-1.621093-1.949218-2.289062-4.523437-1.820312-7.019531l23.703125-126.429687zm0 0"/><path d="m153.789062 366.933594 6.570313 36.179687 16.957031 90.242188c.46875 2.488281-.191406 5.054687-1.800781 7.007812-1.613281 1.953125-4.003906 3.089844-6.535156 3.105469h-.511719c-3.730469 0-7.023438-2.417969-8.140625-5.976562l-16.691406-53.332032-14.851563-47.359375-9.300781-29.867187zm0 0"/></g><path d="m418.152344 238.933594h-324.265625c-4.714844 0-8.535157 3.820312-8.535157 8.535156v17.066406c0 4.710938 3.820313 8.53125 8.535157 8.53125h85.332031l-89.078125 218.648438c-1.070313 2.632812-.761719 5.625.820313 7.980468 1.585937 2.355469 4.238281 3.769532 7.082031 3.773438h15.707031c3.472656-.003906 6.59375-2.105469 7.902344-5.316406l91.699218-225.085938h85.335938l91.699219 225.085938c1.304687 3.210937 4.429687 5.3125 7.898437 5.316406h15.710938c2.839844-.003906 5.496094-1.417969 7.078125-3.773438 1.585937-2.355468 1.894531-5.347656.824219-7.980468l-89.078126-218.648438h85.332032c4.710937 0 8.535156-3.820312 8.535156-8.53125v-17.066406c0-4.714844-3.824219-8.535156-8.535156-8.535156zm0 0" fill="#bdc3c7"/><path d="m93.886719 238.933594h324.265625c4.710937 0 8.535156 3.820312 8.535156 8.535156v17.066406c0 4.710938-3.824219 8.53125-8.535156 8.53125h-324.265625c-4.714844 0-8.535157-3.820312-8.535157-8.53125v-17.066406c0-4.714844 3.820313-8.535156 8.535157-8.535156zm0 0" fill="#e64c3c"/><path d="m23.828125 323.328125 8.191406-1.195313c6.710938-.933593 12.777344-4.496093 16.859375-9.90625 4.082032-5.410156 5.847656-12.222656 4.898438-18.933593l-7.167969-54.359375c-1.980469-13.996094-14.929687-23.738282-28.925781-21.761719l-6.914063.941406zm0 0" fill="#e64c3c"/><path d="m149.523438 366.933594h-85.847657c0-18.851563 15.285157-34.132813 34.136719-34.132813h42.664062c4.582032-.035156 9.117188.894531 13.3125 2.730469zm0 0" fill="#e64c3c"/><path d="m140.988281 375.46875h-88.96875c-17.128906-.039062-31.589843-12.734375-33.851562-29.714844l-18.0820315-143.8125c-.4374995-3.050781.8046875-6.105468 3.2500005-7.984375 2.445312-1.878906 5.71875-2.289062 8.554687-1.078125 2.835937 1.214844 4.796875 3.863282 5.125 6.929688l18.082031 143.769531c1.128906 8.484375 8.363282 14.824219 16.921875 14.824219h88.96875c4.714844 0 8.535157 3.820312 8.535157 8.53125 0 4.714844-3.820313 8.535156-8.535157 8.535156zm0 0" fill="#7f8c8d"/><path d="m431.292969 366.933594 40.796875 130.558594c1.121094 3.558593 4.414062 5.976562 8.140625 5.976562h.515625c2.535156 0 4.941406-1.132812 6.5625-3.085938 1.625-1.949218 2.292968-4.523437 1.824218-7.019531l-23.707031-126.429687zm0 0" fill="#95a5a5"/><path d="m358.25 366.933594-6.574219 36.179687-16.953125 90.242188c-.46875 2.496093.195313 5.070312 1.816406 7.023437 1.617188 1.953125 4.023438 3.085938 6.5625 3.089844h.511719c3.726563 0 7.023438-2.417969 8.140625-5.976562l16.648438-53.332032 14.847656-47.359375 9.300781-29.867187zm0 0" fill="#95a5a5"/><path d="m488.210938 323.328125-8.191407-1.195313c-6.714843-.933593-12.78125-4.496093-16.863281-9.90625-4.082031-5.410156-5.84375-12.222656-4.898438-18.933593l7.167969-54.359375c1.984375-13.996094 14.933594-23.738282 28.929688-21.761719l6.910156.941406zm0 0" fill="#e64c3c"/><path d="m362.515625 366.933594h85.84375c0-18.851563-15.28125-34.132813-34.132813-34.132813h-42.667968c-4.578125-.035156-9.113282.894531-13.308594 2.730469zm0 0" fill="#e64c3c"/><path d="m371.046875 375.46875h88.96875c17.128906-.035156 31.59375-12.734375 33.84375-29.714844l18.089844-143.8125c.5-4.625-2.796875-8.800781-7.414063-9.382812-4.617187-.582032-8.851562 2.644531-9.515625 7.25l-18.082031 143.769531c-1.125 8.484375-8.359375 14.824219-16.921875 14.824219h-88.96875c-4.710937 0-8.53125 3.820312-8.53125 8.53125 0 4.714844 3.820313 8.535156 8.53125 8.535156zm0 0" fill="#7f8c8d"/><path d="m113.75 503.46875h-15.707031c-2.84375-.003906-5.496094-1.417969-7.082031-3.773438-1.582032-2.355468-1.890626-5.347656-.820313-7.980468l89.078125-218.648438h34.132812l-91.699218 225.085938c-1.308594 3.210937-4.429688 5.3125-7.902344 5.316406zm0 0" fill="#bdc3c7"/><path d="m398.285156 503.46875h15.710938c2.839844-.003906 5.496094-1.417969 7.078125-3.773438 1.585937-2.355468 1.894531-5.347656.824219-7.980468l-89.078126-218.648438h-34.132812l91.699219 225.085938c1.304687 3.210937 4.429687 5.3125 7.898437 5.316406zm0 0" fill="#bdc3c7"/><path d="m247.484375 25.601562h17.066406c4.714844 0 8.535157 3.820313 8.535157 8.53125v25.601563h-34.132813v-25.601563c0-4.710937 3.820313-8.53125 8.53125-8.53125zm0 0" fill="#7f8c8d"/><path d="m273.085938 59.734375h-34.132813l-42.148437 35.121094c-1.378907 1.152343-1.890626 3.042969-1.277344 4.730469.609375 1.6875 2.214844 2.8125 4.007812 2.816406h112.964844c1.796875-.003906 3.398438-1.128906 4.011719-2.816406.609375-1.6875.097656-3.578126-1.28125-4.730469zm0 0" fill="#95a5a5"/><path d="m230.417969 102.402344h51.199219v8.53125c0 14.136718-11.460938 25.601562-25.597657 25.601562-14.140625 0-25.601562-11.464844-25.601562-25.601562zm0 0" fill="#f0c419"/></svg>