<svg enable-background="new 0 0 140 140" height="512" viewBox="0 0 140 140" width="512" xmlns="http://www.w3.org/2000/svg"><circle cx="70" cy="70" fill="#4abba4" r="64"/><path d="m69.87883 22.9605331c-10.3800049 0-18.7900391 8.4200439-18.7900391 18.8000488 0 7.5599365 4.4700317 14.0599365 10.9100342 17.039917v1.75l-2.9800415 2.3200684v-.0200195l-4.3699951 2.1300049c-4.25 1.7800293-9.6999512 4.4400635-14.0499878 7.7999268-.9899902.7700195-1.7199707 1.8300781-2.0599976 3.0500488-.5700073 2.0400391-1.4400024 5.9100342-2.1099854 12.2299805-1.0800171 10.2900391-.539978 17.6800537-.539978 17.6800537l27.9498291 27.9498367c2.2583008.2202148 4.529541.3303223 6.8070068.3095703h.3425293c11.2967529-.1636963 22.6936035-3.3193359 32.9692383-9.7515945 16.7304688-10.4726562 26.9428711-27.4128418 29.4415283-45.5476074l-50.2901611-50.2901612c-3.3900146-3.3601074-8.0700683-5.4500733-13.2299804-5.4500733z" opacity=".1"/><path d="m61.996422 52.652679h15.97228v18.775965h-15.97228z" fill="#d6b24e"/><circle cx="69.879" cy="41.759" fill="#feda6f" r="18.793"/><ellipse cx="69.879" cy="41.759" fill="#f2c144" rx="14.656" ry="14.656" transform="matrix(.987 -.16 .16 .987 -5.787 11.733)"/><path d="m69.3049698 52.5854034v-2.1510124c-1.0755081-.135437-1.949852-.3764305-2.6230392-.7229805-.6731949-.3465538-1.2547607-.9062157-1.7447128-1.6789894-.4899597-.7727699-.774765-1.7168274-.8544312-2.8321686l2.1629639-.4063034c.1672974 1.1551743.4620667 2.0036316.8843079 2.5453682.6054688.7648048 1.3304367 1.1910248 2.1749115 1.2786598v-6.8473969c-.8843079-.1673012-1.7885284-.5098724-2.7126694-1.02771-.6851349-.3824005-1.2129364-.9121895-1.5833817-1.5893593-.3704529-.6771698-.5556793-1.445961-.5556793-2.306366 0-1.5296097.5417328-2.7684364 1.625206-3.7164764.7249756-.6373367 1.8004837-1.0277061 3.2265244-1.1711082v-1.0277061h1.2667084v1.0277061c1.2507782.119503 2.24263.4859695 2.9755707 1.0994072.9400711.7807388 1.5057144 1.8522644 1.6969147 3.2145729l-2.2227173.3346024c-.1274643-.844471-.3923645-1.4917679-.7946777-1.9418869-.4023209-.450119-.9540176-.7468796-1.6550903-.8902817v6.2020912c1.0834732.2708702 1.8004837.481987 2.1510162.6333542.6692047.2947693 1.2149277.6532745 1.6371613 1.0755081.4222336.4222374.7468796.9241409.9739304 1.5057106.2270508.5815735.3405762 1.2109413.3405762 1.8881149 0 1.4897766-.4740143 2.7325859-1.4220581 3.7284241-.9480362.995842-2.1749115 1.5296135-3.6806259 1.6013107v2.1749153h-1.2667087zm0-18.8333282c-.8365021.1274643-1.4957504.4620667-1.9777374 1.0038071-.481987.5417366-.7229843 1.1830559-.7229843 1.9239616 0 .7329369.2051468 1.3463745.6154327 1.840313s1.1053848.8882904 2.085289 1.1830597zm1.2667084 14.8659019c.8365097-.103569 1.5276184-.466053 2.0733414-1.0874557.545723-.6214066.8185806-1.3901939.8185806-2.3063698 0-.7807388-.1931915-1.4081154-.5795822-1.8821373-.3863831-.4740181-1.1571655-.8982468-2.3123398-1.2726822z" fill="#fed35b"/><path d="m103.5671463 88.0508194c-.6652832-6.3204346-1.5350342-10.1881104-2.1068115-12.2313232-.3395996-1.2137451-1.0668945-2.2729492-2.0633545-3.0446777-8.3887939-6.4969482-20.9158936-10.3515625-20.9158936-10.3515625l-8.4822998 9.0056152v.005127l-8.4798584-9.0029297s-12.5272217 3.8544922-20.9158936 10.3515625c-.99646.7717285-1.7237549 1.8308105-2.0633545 3.0446777-.5717773 2.0429688-1.4415283 5.9108887-2.1069336 12.2312012-1.0827637 10.2871094-.5412598 17.6865234-.5412598 17.6865234l34.1072998-.0076904h34.1097412c.0000001-.0000001.541504-7.3995362-.5413817-17.6865235z" fill="#293b44"/><path d="m80.9768143 63.2766418c-1.5477753-.561985-2.4954834-.8524818-2.4954834-.8524818l-8.4818192 9.0066872v.0030212l-8.4793205-9.0034904s-.9477119.2905006-2.4954834.8524857c-1.1715279.4190903-2.6859894.990551-4.3908997 1.7096748l1.0243301 12.7537231 1.7933922 3.0204315.4719353 3.8699036c4.0099449 15.5158615 12.0777473 21.0988312 12.0777473 21.0988312l.0008011.0008469c.053833-.0374374 8.0795898-5.642189 12.0761032-21.1059036l.4719315-3.869957 1.793335-3.0204315 1.0243301-12.7536621c-1.7049103-.7191239-3.2193756-1.2905847-4.3908996-1.7096788z" fill="#dbd8dd"/><path d="m71.7269058 71.4286423h-3.6966629l-1.8483276 5.0243606 1.8483276 3.2014084h3.6966629l1.8483277-3.2014084z" fill="#dd584d"/><path d="m78.0051117 60.5457573-8.0063248 10.883152 5.6002808 6.7017899 6.4757156-14.4170762z" fill="#ededed"/><path d="m61.9964218 60.5519981 8.0063248 10.883152-5.6002808 6.7017899-6.4757118-14.4170761z" fill="#ededed"/><path d="m73.0091171 102.9570923-3.0071029 2.7791824-3.2463074-3.8499679 1.2334518-22.6717682h3.7788315z" fill="#dd584d"/><g fill="#344d5b"><path d="m55.8767967 81.5084534-1.395401 2.9622421c4.0099411 15.5158081 15.5198174 21.2647324 15.5198174 21.2647324-10.0009957-14.8395844-10.9003372-38.9522095-10.9764939-42.4525414-.0095329-.2809639-.0095329-.428627-.0095329-.428627l-4.3813629 2.1383018-1.7192688 14.4252625z"/><path d="m84.1247406 81.5022125 1.395401 2.9622421c-4.0099411 15.5158081-15.5206299 21.2735672-15.5206299 21.2735672 10.0009918-14.839592 10.9011459-38.9610443 10.9773026-42.46138.0095367-.2809639.0095367-.4286232.0095367-.4286232l4.3813629 2.1383018 1.7192688 14.4252625z"/></g></svg>