<svg xmlns="http://www.w3.org/2000/svg" width="46.468" height="44" viewBox="0 0 46.468 44">
  <g id="follower" transform="translate(-22.449 -24.651)">
    <path id="Path_82" data-name="Path 82" d="M57.9,46.616a10.972,10.972,0,0,0-3.273.5,16.162,16.162,0,0,0-4.238-1.9A8.171,8.171,0,0,0,46.469,30.2a8.181,8.181,0,1,0-12.2,9.493A16.3,16.3,0,0,0,22.449,55.344a.979.979,0,0,0,.979.979H30.3a16.223,16.223,0,0,0-.649,4.539.979.979,0,0,0,.979.979H47.718A11.017,11.017,0,1,0,57.9,46.616Zm-5.742-8.259a6.227,6.227,0,1,1-6.227-6.227A6.226,6.226,0,0,1,52.159,38.357ZM32.5,32.84a6.225,6.225,0,0,1,11.918-2.52,8.193,8.193,0,0,0-6.67,8.038c0,.213.016.421.032.63A6.231,6.231,0,0,1,32.5,32.84ZM24.439,54.365A14.338,14.338,0,0,1,38.208,41.036a8.216,8.216,0,0,0,3.264,4.174,16.348,16.348,0,0,0-10.462,9.155Zm7.206,5.517A14.31,14.31,0,0,1,52.41,48.1a11,11,0,0,0-5.3,11.787ZM57.9,66.7a9.064,9.064,0,1,1,9.064-9.064A9.063,9.063,0,0,1,57.9,66.7Z" transform="translate(0 0)" fill="#76b1dc"/>
    <path id="Path_83" data-name="Path 83" d="M85.443,77.014l-5.77,5.145-2.557-2.283a.979.979,0,1,0-1.3,1.461L79.024,84.2a.98.98,0,0,0,1.3,0l6.419-5.725a.979.979,0,1,0-1.3-1.461Z" transform="translate(-23.377 -22.97)" fill="#76b1dc"/>
  </g>
</svg>
